PathFileType	4	(X/Y/Z)	s02c0203.trc
DataRate	CameraRate	NumFrames	NumMarkers	Units	OrigDataRate	OrigDataStartFrame	OrigNumFrames
200	200	4	51	mm	200	1500	2000
Frame#	Time	racr			lacr			c7			jug			rlel			rdr			llel			ldr			s2			lic			ric			lasi			rasi			rpsi			lpsi			rgt			lgt			rth1			rth2			rth3			rth4			rlfc			rmfc			rsh1			rsh2			rsh3			rsh4			rlmal			rmmal			rcal			rtoe			rmt5			rmt1			lth1			lth2			lth4			lth3			llfc			lmfc			lsh1			lsh2			lsh3			lsh4			llmal			lmmal			lcal			ltoe			lmt5			SBIKE			LBIKE			RBIKE			
		X1	Y1	Z1	X2	Y2	Z2	X3	Y3	Z3	X4	Y4	Z4	X5	Y5	Z5	X6	Y6	Z6	X7	Y7	Z7	X8	Y8	Z8	X9	Y9	Z9	X10	Y10	Z10	X11	Y11	Z11	X12	Y12	Z12	X13	Y13	Z13	X14	Y14	Z14	X15	Y15	Z15	X16	Y16	Z16	X17	Y17	Z17	X18	Y18	Z18	X19	Y19	Z19	X20	Y20	Z20	X21	Y21	Z21	X22	Y22	Z22	X23	Y23	Z23	X24	Y24	Z24	X25	Y25	Z25	X26	Y26	Z26	X27	Y27	Z27	X28	Y28	Z28	X29	Y29	Z29	X30	Y30	Z30	X31	Y31	Z31	X32	Y32	Z32	X33	Y33	Z33	X34	Y34	Z34	X35	Y35	Z35	X36	Y36	Z36	X37	Y37	Z37	X38	Y38	Z38	X39	Y39	Z39	X40	Y40	Z40	X41	Y41	Z41	X42	Y42	Z42	X43	Y43	Z43	X44	Y44	Z44	X45	Y45	Z45	X46	Y46	Z46	X47	Y47	Z47	X48	Y48	Z48	X49	Y49	Z49	X50	Y50	Z50	X51	Y51	Z51	
1500	7.5000	574.522049	1214.234272	-198.735961	523.201418	1239.666078	-523.766811	534.130734	1271.456350	-361.782077	473.162082	1142.922620	-354.322286	574.355576	1018.568215	-20.253183	704.267101	887.542251	-108.285392	517.908362	991.944986	-657.222901	680.453459	881.019299	-552.743171	10.095029	1115.221561	-298.115153	124.280220	1112.507416	-453.307942	141.611926	1099.283954	-159.649025	173.826630	1114.980526	-428.773907	190.483123	1076.532572	-195.612265	29.504827	1143.175949	-255.877847	31.786754	1154.208350	-339.524459	116.000664	1009.894121	-122.785809	98.799706	1033.156448	-483.073951	203.833166	960.838241	-126.395474	283.185934	921.635609	-130.166917	334.959548	856.746366	-108.228077	302.801660	941.838721	-155.668014	408.757156	736.780810	-141.920292	392.946335	721.162958	-251.223057	352.188350	639.365277	-128.587562	306.324871	563.593873	-149.017909	235.115492	517.043340	-142.727953	318.863651	557.446747	-185.329599	147.195345	443.713627	-149.323349	170.046743	452.052089	-229.765576	68.855973	467.338655	-194.680169	229.494293	229.541847	-189.207878	153.833668	309.811472	-133.896624	179.597009	294.043919	-241.287218	222.877118	970.500899	-501.819358	304.824886	941.573477	-502.326761	323.728717	968.546636	-483.623103	361.237518	872.519136	-505.092904	441.011998	806.181195	-486.707448	456.456659	776.962534	-384.412175	428.037740	702.692581	-505.936792	430.188685	616.816797	-491.482492	385.929015	538.056743	-491.726468	450.333456	615.531954	-456.325412	342.973217	438.252927	-477.358469	363.363858	436.558681	-401.050955	277.665541	385.570881	-439.829178	565.098199	360.400978	-447.259659	457.463525	342.662269	-508.562520	-129.014383	869.447356	-313.160443	32.398134	82.684659	-515.190728	32.462176	82.574100	-115.217528	
1501	7.5050	573.991912	1214.197450	-198.079074	523.221404	1238.901169	-523.260715	533.720177	1271.026329	-361.205991	473.198051	1142.285437	-353.683888	573.793741	1018.268352	-19.831861	704.144514	887.717121	-107.903553	517.508820	991.288755	-656.759812	680.409690	880.645933	-552.498786	9.470141	1114.182304	-298.410440	124.236551	1111.418828	-453.763954	142.577598	1098.843111	-158.193997	173.610312	1116.018346	-428.744920	189.608640	1075.945635	-196.012315	28.700964	1141.875412	-256.274933	31.159096	1152.763944	-339.930689	116.164382	1009.792010	-122.221866	98.248116	1031.270843	-482.913066	204.399287	962.346341	-126.508865	284.609999	925.254263	-130.937042	338.372061	862.147636	-108.653565	303.429089	945.646067	-156.815166	414.042173	743.436189	-142.629101	398.119225	727.464887	-251.065751	356.544277	646.459972	-128.710731	309.751788	571.272183	-149.078071	237.640834	525.850107	-142.878273	322.106096	564.921010	-185.446092	148.835118	454.224775	-149.540448	172.054710	462.083134	-229.955090	70.750883	478.980767	-194.907670	228.244569	239.004606	-189.185344	153.661717	320.356467	-133.982358	179.161411	304.186285	-241.358502	221.643723	966.410819	-501.929624	303.018171	935.644096	-502.191572	322.477679	962.354776	-483.698096	357.951917	865.463318	-504.469681	437.028474	799.138293	-485.237512	453.518561	769.467585	-384.080588	424.791006	694.762108	-505.530736	428.476735	608.979743	-491.675438	385.273990	529.554962	-491.712052	448.614454	607.862982	-456.448016	344.203621	428.179860	-477.689036	364.419794	426.430432	-401.298929	278.358597	376.013546	-440.610389	566.259261	348.663365	-447.002036	458.604054	331.814592	-508.497686	-129.058028	869.433704	-313.141985	32.401576	82.680416	-515.193840	32.451487	82.569612	-115.222826	
1502	7.5100	573.441783	1214.127481	-197.287961	523.288790	1238.096268	-522.684956	533.358630	1270.618716	-360.525700	473.140112	1141.738868	-352.945176	573.279033	1017.961229	-19.370559	704.003214	887.697781	-107.648375	517.266008	990.533773	-656.375679	680.409688	880.323541	-552.372276	8.862726	1112.953599	-298.847999	124.578518	1110.253081	-453.998985	141.907839	1098.314424	-158.511697	173.386805	1117.036265	-428.732347	188.784537	1075.771569	-196.535570	27.941575	1140.750260	-256.691773	30.870844	1151.413039	-340.512265	116.262254	1009.627079	-122.001296	97.756067	1029.423381	-482.871905	204.745332	963.993813	-126.698033	285.923265	928.863378	-132.154092	341.583737	867.924082	-108.921314	304.264874	950.604116	-156.952738	419.489858	750.481489	-142.381418	403.371035	733.948217	-250.955562	360.847190	653.846876	-128.869376	313.155536	579.147371	-149.267972	240.741488	534.758644	-143.120672	325.488990	572.721448	-185.649614	150.778127	464.739391	-149.763089	172.769019	473.404984	-230.183887	72.939912	490.279412	-195.050644	227.721750	248.669930	-189.241618	154.121538	330.903738	-134.141270	179.509201	314.275989	-241.440214	220.418178	962.122744	-502.039326	301.143622	929.574193	-502.201745	321.162134	955.797716	-484.125878	354.248035	858.091798	-504.540987	432.348526	791.057569	-484.368656	448.396982	760.393804	-382.697410	421.218173	686.739862	-505.161341	426.109588	601.231402	-491.634238	384.174185	520.970353	-492.349209	446.343928	600.059998	-456.281891	344.783705	418.008958	-478.154153	364.952418	416.419037	-401.471259	279.555933	366.314891	-440.683925	566.938631	336.815760	-446.566515	459.126271	320.959031	-508.418326	-129.087763	869.404939	-313.215742	32.377888	82.676741	-515.158859	32.282278	82.874204	-115.188529	
1503	7.5150	573.036852	1214.199338	-195.975177	523.475322	1237.378753	-522.063704	533.013710	1270.262018	-359.653253	473.430795	1141.092611	-351.978495	572.761865	1017.459580	-18.870406	703.814931	887.659362	-107.397984	517.080558	989.759841	-655.979483	680.492953	880.019790	-552.401360	7.570438	1110.496909	-299.407161	124.761514	1109.255006	-454.526812	141.181825	1097.802666	-158.850290	173.156418	1118.034164	-428.735793	187.823424	1075.580824	-197.307177	27.006197	1139.968085	-257.304492	30.432781	1150.315508	-341.147067	115.916014	1009.179876	-122.636437	97.293268	1027.566105	-482.916549	204.862272	965.857188	-126.876475	286.944765	932.872119	-132.819410	344.386416	873.824142	-109.202549	304.447579	955.016330	-157.733253	424.665297	757.800791	-142.338180	408.791801	741.559993	-250.404906	365.510253	661.369887	-128.805749	316.777257	587.427019	-149.381101	243.549262	543.682794	-143.197940	328.971119	580.792500	-185.601058	153.025923	475.251693	-150.024737	174.752009	483.641397	-230.307771	75.733633	501.364335	-195.937019	227.929781	258.446402	-189.218049	155.096238	341.611696	-134.270969	180.285466	324.710195	-241.622572	219.182733	957.958103	-502.201952	299.278788	923.605062	-502.434083	319.735766	949.313346	-484.228453	350.642287	850.869654	-503.449904	427.611971	782.587172	-483.558416	442.092560	751.170962	-382.356297	417.252122	678.328824	-504.847184	423.413871	592.939989	-491.550884	382.699844	511.949236	-492.523673	443.429180	591.542571	-455.706379	344.866508	407.932046	-478.560142	362.848197	406.202139	-401.821893	279.666364	356.804874	-441.034314	567.074681	325.751493	-447.292768	458.961341	310.044440	-508.332254	-129.103808	869.368260	-313.262921	32.377888	82.654140	-515.152215	32.257191	82.832342	-115.150732	
